<?xml version="1.0" encoding="UTF-8"?>
<svg xmlns="http://www.w3.org/2000/svg" xmlns:xlink="http://www.w3.org/1999/xlink" width="48px" height="48px" viewBox="0 0 48 48" version="1.1">
<g id="surface1">
<path style=" stroke:none;fill-rule:nonzero;fill:rgb(0%,0%,0%);fill-opacity:1;" d="M 14 1.5 C 13.300781 2.398438 12.5 2.800781 12.199219 2.5 C 11.199219 1.601562 1.101562 12.199219 1.699219 13.5 C 1.898438 14.199219 1.699219 15.101562 1.101562 15.5 C 0.5 15.800781 0 17.300781 0.101562 18.800781 C 0.101562 21.199219 0.199219 21.300781 1 19.5 C 1.398438 18.300781 2.5 16.800781 3.398438 16 C 5 14.800781 5.101562 15.101562 4.398438 19.800781 C 4 23.398438 4.300781 26.398438 5.5 30.398438 C 7 35.199219 7.898438 36.398438 12.300781 39.199219 C 16.898438 42.101562 18.101562 42.398438 25.199219 42.5 C 29.5 42.5 33 42.699219 33 43.101562 C 33 43.398438 32.5 44.101562 31.800781 44.800781 C 31 45.601562 30.898438 46 31.699219 46 C 32.300781 46 35.398438 43.101562 38.601562 39.5 C 41.699219 35.898438 44.5 33.199219 44.800781 33.398438 C 45.101562 33.699219 43.300781 36.5 41 39.699219 C 38.601562 42.898438 37.601562 44.601562 38.800781 43.601562 C 40.898438 41.800781 41.800781 42.5 40.300781 44.601562 C 39.800781 45.199219 41.398438 43.601562 43.800781 41.101562 C 48.699219 35.800781 49.300781 32.601562 45.398438 32.398438 C 42 32.199219 41.800781 31.800781 43.101562 28.398438 C 44.5 24.601562 43.5 18.800781 40.5 13.398438 C 39.101562 10.898438 38 8.5 38 8 C 38 7.5 39.398438 6.300781 41 5.300781 C 42.699219 4.398438 44 3.199219 44 2.800781 C 44 1.5 41.699219 2.398438 39 4.699219 C 37.699219 6 36.199219 7 35.800781 7 C 34.699219 7 34.800781 5.199219 36 4.5 C 37.398438 3.601562 39.199219 0 38.300781 0 C 37.800781 0 36.601562 1.5 35.699219 3.300781 L 33.898438 6.601562 L 28.5 4.800781 C 23.199219 3 22.898438 3 17.898438 5 L 12.699219 6.898438 L 16 3.5 C 19 0.398438 19.199219 0 17.300781 0 C 16.199219 0 14.699219 0.699219 14 1.5 Z M 17.5 11.800781 C 17.101562 12.199219 16.199219 11.699219 15.5 10.699219 C 14.800781 9.699219 13.898438 9.300781 13.601562 9.800781 C 13.300781 10.300781 13.699219 11.300781 14.5 12 C 16.101562 13.300781 16.5 16 15.199219 16 C 14.699219 16 13.5 15.101562 12.5 14 C 11.5 12.898438 10.5 12.199219 10.199219 12.398438 C 10 12.699219 10.398438 13.601562 11.101562 14.398438 C 11.898438 15.199219 13.101562 16.699219 13.898438 17.601562 C 15.199219 19.199219 15.398438 19.101562 16.101562 17.199219 C 16.699219 15.699219 17.5 15.199219 18.699219 15.601562 C 20.101562 16.101562 20.199219 16 19.101562 15.199219 C 17 13.699219 18.699219 11.800781 21 13 C 22.199219 13.601562 23.800781 13.699219 25.398438 13 C 27.101562 12.398438 28.101562 12.398438 28.601562 13.199219 C 29.5 14.601562 26.898438 16.101562 24.800781 15.398438 C 23 14.898438 16.398438 17.800781 17.398438 18.699219 C 18.101562 19.398438 29.101562 19.199219 29.898438 18.398438 C 30.199219 18.101562 29.898438 17.5 29.199219 17.101562 C 28.199219 16.5 28.199219 16.101562 29.300781 15.101562 C 30.398438 14.199219 31 14.300781 32 15.5 C 33 16.699219 33 17 32 17 C 31.300781 17 31 17.601562 31.300781 18.398438 C 31.898438 19.898438 29.601562 21.398438 27 21.199219 C 26 21.101562 25.898438 21.199219 26.800781 21.601562 C 29.101562 22.601562 28 24 24.800781 24.101562 L 21.5 24.300781 L 24.5 24.699219 C 26.5 25 27.800781 24.601562 28.699219 23.5 C 29.398438 22.5 30.601562 22 31.5 22.398438 C 32.398438 22.699219 32.800781 22.601562 32.5 22 C 32.199219 21.398438 32.601562 21 33.398438 21 C 36 21 35.5 27.199219 32.699219 29.800781 C 31 31.398438 30.101562 31.699219 29.300781 30.898438 C 28.5 30.101562 28.699219 29.300781 30.101562 27.898438 C 32.199219 25.800781 32.601562 24 31 24 C 30.5 24 30 24.699219 30 25.5 C 30 26.699219 28.601562 27 23.5 27 C 18.398438 27 17 26.699219 17 25.5 C 17 24.699219 16.601562 24 16 24 C 14.300781 24 14.898438 25.601562 17.5 28.199219 C 20.101562 30.800781 20.300781 33.800781 18.300781 38.898438 C 17.398438 41 17.199219 41.101562 15.699219 39.601562 C 14.199219 38.101562 14.300781 37.800781 16.601562 35.300781 C 19.398438 32.300781 19.699219 30.199219 17.300781 30.398438 C 16.300781 30.398438 15.300781 29.5 14.898438 28 C 14.5 26.601562 14.199219 26.101562 14.101562 26.699219 C 14 27.398438 13.5 28 12.898438 28 C 12.101562 28 12.101562 27.5 13 26.5 C 13.699219 25.699219 14 24.101562 13.699219 23 C 13.300781 21.300781 13.5 21 15.101562 21.5 C 16.199219 21.898438 17 21.699219 17 21.101562 C 17 20.5 16.398438 19.898438 15.800781 19.800781 C 15.101562 19.800781 14.101562 19.601562 13.5 19.5 C 13 19.300781 11 19.199219 9.300781 19.101562 C 6.300781 19 6 18.699219 6 16 C 6 14 6.601562 12.699219 7.800781 12.300781 C 8.699219 11.898438 9.800781 11.300781 10.101562 10.800781 C 10.398438 10.300781 12.199219 9.101562 14.101562 8.101562 L 17.5 6.199219 L 17.800781 8.699219 C 18 10.101562 17.898438 11.5 17.5 11.800781 Z M 27 8.398438 C 27 11.101562 25.199219 12.101562 22.101562 11.300781 C 20.699219 11 20 10 20 8.398438 C 20 6.300781 20.5 6 23.5 6 C 26.5 6 27 6.300781 27 8.398438 Z M 32 7.800781 C 32 8.300781 31.398438 9.398438 30.699219 10.5 C 29.101562 12.5 27.601562 11.199219 28.601562 8.601562 C 29.199219 7 32 6.300781 32 7.800781 Z M 35.800781 13.699219 C 34.398438 15.101562 33.800781 15.101562 32.5 14 C 31.101562 12.800781 31.101562 12.5 32.699219 10.800781 C 34.199219 9.101562 34.5 9.101562 35.898438 10.5 C 37.300781 11.800781 37.300781 12.199219 35.800781 13.699219 Z M 39.601562 14.699219 C 41.699219 17.5 41.199219 18.898438 38.101562 18.800781 C 36.601562 18.699219 34.800781 19 34.101562 19.398438 C 33.5 19.800781 33 19.601562 33 19.101562 C 33 18.5 33.398438 18 33.800781 18 C 34.300781 18 35.300781 16.898438 36 15.5 C 37.601562 12.5 37.898438 12.5 39.601562 14.699219 Z M 11.699219 23.199219 C 11.898438 25.699219 11.601562 26 8.601562 26 C 5.601562 26 5.300781 25.699219 5.199219 22.898438 C 5.101562 20.101562 5.300781 19.898438 8.300781 20.199219 C 11 20.398438 11.5 20.898438 11.699219 23.199219 Z M 42 23 C 42 25.699219 41.699219 26 39 26 C 36.5 26 36 25.601562 36 23.601562 C 36 21.300781 36.398438 21 41.300781 20.101562 C 41.699219 20.101562 42 21.300781 42 23 Z M 39.898438 29.300781 C 38.5 30.800781 37.699219 31.101562 36.898438 30.300781 C 35.300781 28.699219 36.5 27.199219 39.398438 27.199219 C 41.800781 27.199219 41.800781 27.300781 39.898438 29.300781 Z M 11 28.898438 C 11 30.398438 8.199219 32.199219 7 31.5 C 6.199219 31 6.199219 30.398438 7.101562 29.398438 C 8.398438 27.898438 11 27.5 11 28.898438 Z M 26.699219 29.398438 C 25.101562 33.398438 24.898438 38.101562 26.101562 39.601562 C 27.199219 40.898438 26.800781 41.101562 23.199219 40.898438 C 20.898438 40.699219 19 40.199219 19 39.800781 C 19 39.398438 19.5 39 20.101562 39 C 20.800781 39 21.101562 37 20.800781 33.5 L 20.5 28 L 23.898438 28 C 26.398438 28 27.101562 28.398438 26.699219 29.398438 Z M 15 31.601562 C 16.101562 32.800781 16 33.398438 14.398438 35.101562 C 12.601562 36.800781 12.199219 36.898438 10.5 35.601562 C 8.601562 34.199219 8.601562 34.101562 10.398438 32.101562 C 12.699219 29.601562 13.398438 29.5 15 31.601562 Z M 36.5 32 C 38.199219 33.898438 38.199219 34.199219 36.699219 35.699219 C 35.199219 37.199219 34.898438 37.199219 33.101562 34.898438 C 31.699219 33.199219 31.5 32.101562 32.199219 31.199219 C 33.601562 29.5 34.398438 29.699219 36.5 32 Z M 32.199219 35.699219 C 34.699219 37.898438 34.5 38.601562 31.199219 39.800781 C 28.601562 40.699219 28.300781 40.5 27.300781 37.898438 C 26.699219 36.398438 26.5 34.898438 26.800781 34.601562 C 27.800781 33.5 30.398438 34 32.199219 35.699219 Z M 47 34.898438 C 47 36.199219 41.898438 42.199219 41.199219 41.601562 C 41 41.300781 42 39.5 43.601562 37.601562 C 46.800781 33.699219 47 33.601562 47 34.898438 Z M 47 34.898438 "/>
<path style=" stroke:none;fill-rule:nonzero;fill:rgb(0%,0%,0%);fill-opacity:1;" d="M 3.101562 42.101562 C 1.398438 44.398438 0 46.699219 0 47.199219 C 0 47.601562 10.800781 48 24 48 L 48 48 L 48 42.800781 L 46.101562 45.101562 C 45 46.398438 43.898438 47.199219 43.5 46.898438 C 43.199219 46.5 44.101562 44.800781 45.601562 43.101562 C 47 41.300781 48 39.699219 47.800781 39.398438 C 47.5 39.199219 46 40.800781 44.5 43 L 41.699219 47 L 23.699219 47 C 6.300781 47 5.699219 46.898438 7.300781 45.199219 C 9.199219 43.199219 9.5 42 8.199219 42 C 7.699219 42 6.800781 43.101562 6.199219 44.5 C 5.5 46 4.199219 47 3 47 C 1 47 1 46.898438 2.5 45.398438 C 5 42.800781 7.300781 39 6.699219 38.398438 C 6.398438 38.101562 4.800781 39.699219 3.101562 42.101562 Z M 3.101562 42.101562 "/>
</g>
</svg>
